<svg width="24" height="25" viewBox="0 0 24 25" fill="none" xmlns="http://www.w3.org/2000/svg"><g id="Action / delete"><mask id="mask0_70_4210" style="mask-type:alpha" maskUnits="userSpaceOnUse" x="5" y="3" width="14" height="19"><g id="Icon Mask"><path id="Round" fill-rule="evenodd" clip-rule="evenodd" d="M15.5 4.26465H18C18.55 4.26465 19 4.71465 19 5.26465C19 5.81465 18.55 6.26465 18 6.26465H6C5.45 6.26465 5 5.81465 5 5.26465C5 4.71465 5.45 4.26465 6 4.26465H8.5L9.21 3.55465C9.39 3.37465 9.65 3.26465 9.91 3.26465H14.09C14.35 3.26465 14.61 3.37465 14.79 3.55465L15.5 4.26465ZM8 21.2646C6.9 21.2646 6 20.3646 6 19.2646V9.26465C6 8.16465 6.9 7.26465 8 7.26465H16C17.1 7.26465 18 8.16465 18 9.26465V19.2646C18 20.3646 17.1 21.2646 16 21.2646H8Z" fill="black"/></g></mask><g mask="url(#mask0_70_4210)"><rect id="Color Fill" y="0.264648" width="24" height="24" fill="#858C94"/></g></g></svg>
